<svg width="295" height="279" viewBox="0 0 295 279" fill="none" xmlns="http://www.w3.org/2000/svg">
<g filter="url(#filter0_ddd_532_4400)">
<rect x="36.0167" y="16" width="222.967" height="251" rx="16" fill="#FAFAFA"/>
</g>
<g filter="url(#filter1_ddd_532_4400)">
<rect x="22.0084" y="10" width="250.983" height="251" rx="16" fill="#FAFAFA"/>
</g>
<g filter="url(#filter2_ddd_532_4400)">
<path d="M8 20C8 11.1634 15.1634 4 24 4H271C279.837 4 287 11.1634 287 20V239C287 247.837 279.837 255 271 255H24C15.1634 255 8 247.837 8 239V20Z" fill="#FAFAFA" shape-rendering="crispEdges"/>
<path d="M42.7841 100.5L39.5041 88.58H41.5041L44.1601 98.9H43.6641L46.4161 88.58H48.3841L51.1361 98.9H50.6241L53.2961 88.58H55.2801L52.0161 100.5H49.8881L47.1201 90.34H47.6801L44.8961 100.5H42.7841ZM56.5091 100.5V88.388H58.3171V93.54L58.0291 93.316C58.2425 92.772 58.5838 92.3613 59.0531 92.084C59.5225 91.796 60.0665 91.652 60.6851 91.652C61.3251 91.652 61.8905 91.7907 62.3811 92.068C62.8718 92.3453 63.2558 92.7293 63.5331 93.22C63.8105 93.7107 63.9491 94.2707 63.9491 94.9V100.5H62.1571V95.396C62.1571 94.9587 62.0718 94.5907 61.9011 94.292C61.7411 93.9827 61.5171 93.748 61.2291 93.588C60.9411 93.4173 60.6105 93.332 60.2371 93.332C59.8745 93.332 59.5438 93.4173 59.2451 93.588C58.9571 93.748 58.7278 93.9827 58.5571 94.292C58.3971 94.6013 58.3171 94.9693 58.3171 95.396V100.5H56.5091ZM68.4761 100.692C67.8895 100.692 67.3721 100.591 66.9241 100.388C66.4868 100.175 66.1455 99.8867 65.9001 99.524C65.6548 99.1507 65.5321 98.7133 65.5321 98.212C65.5321 97.7427 65.6335 97.3213 65.8361 96.948C66.0495 96.5747 66.3748 96.26 66.8121 96.004C67.2495 95.748 67.7988 95.5667 68.4601 95.46L71.4681 94.964V96.388L68.8121 96.852C68.3321 96.9373 67.9801 97.092 67.7561 97.316C67.5321 97.5293 67.4201 97.8067 67.4201 98.148C67.4201 98.4787 67.5428 98.7507 67.7881 98.964C68.0441 99.1667 68.3695 99.268 68.7641 99.268C69.2548 99.268 69.6815 99.1613 70.0441 98.948C70.4175 98.7347 70.7055 98.452 70.9081 98.1C71.1108 97.7373 71.2121 97.3373 71.2121 96.9V94.676C71.2121 94.2493 71.0521 93.9027 70.7321 93.636C70.4228 93.3587 70.0068 93.22 69.4841 93.22C69.0041 93.22 68.5828 93.348 68.2201 93.604C67.8681 93.8493 67.6068 94.1693 67.4361 94.564L65.9321 93.812C66.0921 93.3853 66.3535 93.012 66.7161 92.692C67.0788 92.3613 67.5001 92.1053 67.9801 91.924C68.4708 91.7427 68.9881 91.652 69.5321 91.652C70.2148 91.652 70.8175 91.78 71.3401 92.036C71.8735 92.292 72.2841 92.6493 72.5721 93.108C72.8708 93.556 73.0201 94.0787 73.0201 94.676V100.5H71.2921V98.932L71.6601 98.98C71.4575 99.332 71.1961 99.636 70.8761 99.892C70.5668 100.148 70.2095 100.345 69.8041 100.484C69.4095 100.623 68.9668 100.692 68.4761 100.692ZM78.7219 100.596C77.8152 100.596 77.1112 100.34 76.6099 99.828C76.1085 99.316 75.8579 98.596 75.8579 97.668V93.476H74.3379V91.844H74.5779C74.9832 91.844 75.2979 91.7267 75.5219 91.492C75.7459 91.2573 75.8579 90.9373 75.8579 90.532V89.86H77.6659V91.844H79.6339V93.476H77.6659V97.588C77.6659 97.8867 77.7139 98.1427 77.8099 98.356C77.9059 98.5587 78.0605 98.7187 78.2739 98.836C78.4872 98.9427 78.7645 98.996 79.1059 98.996C79.1912 98.996 79.2872 98.9907 79.3939 98.98C79.5005 98.9693 79.6019 98.9587 79.6979 98.948V100.5C79.5485 100.521 79.3832 100.543 79.2019 100.564C79.0205 100.585 78.8605 100.596 78.7219 100.596ZM84.2591 100.5V91.844H86.0671V100.5H84.2591ZM84.2591 90.66V88.58H86.0671V90.66H84.2591ZM91.381 100.692C90.4957 100.692 89.717 100.473 89.045 100.036C88.3837 99.5987 87.9197 99.012 87.653 98.276L89.045 97.62C89.2797 98.1107 89.5997 98.5 90.005 98.788C90.421 99.076 90.8797 99.22 91.381 99.22C91.8077 99.22 92.1543 99.124 92.421 98.932C92.6877 98.74 92.821 98.4787 92.821 98.148C92.821 97.9347 92.7623 97.764 92.645 97.636C92.5277 97.4973 92.3783 97.3853 92.197 97.3C92.0263 97.2147 91.8503 97.1507 91.669 97.108L90.309 96.724C89.5623 96.5107 89.0023 96.1907 88.629 95.764C88.2663 95.3267 88.085 94.82 88.085 94.244C88.085 93.7213 88.2183 93.268 88.485 92.884C88.7517 92.4893 89.1197 92.1853 89.589 91.972C90.0583 91.7587 90.5863 91.652 91.173 91.652C91.9623 91.652 92.6663 91.8493 93.285 92.244C93.9037 92.628 94.341 93.1667 94.597 93.86L93.205 94.516C93.0343 94.1 92.7623 93.7693 92.389 93.524C92.0263 93.2787 91.6157 93.156 91.157 93.156C90.7623 93.156 90.4477 93.252 90.213 93.444C89.9783 93.6253 89.861 93.8653 89.861 94.164C89.861 94.3667 89.9143 94.5373 90.021 94.676C90.1277 94.804 90.2663 94.9107 90.437 94.996C90.6077 95.0707 90.7837 95.1347 90.965 95.188L92.373 95.604C93.0877 95.8067 93.637 96.1267 94.021 96.564C94.405 96.9907 94.597 97.5027 94.597 98.1C94.597 98.612 94.4583 99.0653 94.181 99.46C93.9143 99.844 93.541 100.148 93.061 100.372C92.581 100.585 92.021 100.692 91.381 100.692ZM102.909 100.596C102.003 100.596 101.299 100.34 100.797 99.828C100.296 99.316 100.045 98.596 100.045 97.668V93.476H98.5254V91.844H98.7654C99.1707 91.844 99.4854 91.7267 99.7094 91.492C99.9334 91.2573 100.045 90.9373 100.045 90.532V89.86H101.853V91.844H103.821V93.476H101.853V97.588C101.853 97.8867 101.901 98.1427 101.997 98.356C102.093 98.5587 102.248 98.7187 102.461 98.836C102.675 98.9427 102.952 98.996 103.293 98.996C103.379 98.996 103.475 98.9907 103.581 98.98C103.688 98.9693 103.789 98.9587 103.885 98.948V100.5C103.736 100.521 103.571 100.543 103.389 100.564C103.208 100.585 103.048 100.596 102.909 100.596ZM105.65 100.5V88.388H107.458V93.54L107.17 93.316C107.383 92.772 107.724 92.3613 108.194 92.084C108.663 91.796 109.207 91.652 109.826 91.652C110.466 91.652 111.031 91.7907 111.522 92.068C112.012 92.3453 112.396 92.7293 112.674 93.22C112.951 93.7107 113.09 94.2707 113.09 94.9V100.5H111.298V95.396C111.298 94.9587 111.212 94.5907 111.042 94.292C110.882 93.9827 110.658 93.748 110.37 93.588C110.082 93.4173 109.751 93.332 109.378 93.332C109.015 93.332 108.684 93.4173 108.386 93.588C108.098 93.748 107.868 93.9827 107.698 94.292C107.538 94.6013 107.458 94.9693 107.458 95.396V100.5H105.65ZM119.089 100.692C118.225 100.692 117.457 100.495 116.785 100.1C116.123 99.6947 115.606 99.1507 115.233 98.468C114.859 97.7747 114.673 97.0013 114.673 96.148C114.673 95.2733 114.859 94.5 115.233 93.828C115.617 93.156 116.129 92.628 116.769 92.244C117.409 91.8493 118.134 91.652 118.945 91.652C119.595 91.652 120.177 91.764 120.689 91.988C121.201 92.212 121.633 92.5213 121.985 92.916C122.337 93.3 122.603 93.7427 122.785 94.244C122.977 94.7453 123.073 95.2787 123.073 95.844C123.073 95.9827 123.067 96.1267 123.057 96.276C123.046 96.4253 123.025 96.564 122.993 96.692H116.097V95.252H121.969L121.105 95.908C121.211 95.3853 121.174 94.9213 120.993 94.516C120.822 94.1 120.555 93.7747 120.193 93.54C119.841 93.2947 119.425 93.172 118.945 93.172C118.465 93.172 118.038 93.2947 117.665 93.54C117.291 93.7747 117.003 94.116 116.801 94.564C116.598 95.0013 116.518 95.5347 116.561 96.164C116.507 96.7507 116.587 97.2627 116.801 97.7C117.025 98.1373 117.334 98.4787 117.729 98.724C118.134 98.9693 118.593 99.092 119.105 99.092C119.627 99.092 120.07 98.9747 120.433 98.74C120.806 98.5053 121.099 98.2013 121.313 97.828L122.785 98.548C122.614 98.9533 122.347 99.3213 121.985 99.652C121.633 99.972 121.206 100.228 120.705 100.42C120.214 100.601 119.675 100.692 119.089 100.692ZM127.634 100.5V91.844H129.362V93.716L129.138 93.428C129.319 92.8413 129.65 92.3987 130.13 92.1C130.61 91.8013 131.159 91.652 131.778 91.652C132.471 91.652 133.085 91.8387 133.618 92.212C134.162 92.5747 134.525 93.06 134.706 93.668L134.194 93.716C134.45 93.0227 134.839 92.5053 135.362 92.164C135.895 91.8227 136.503 91.652 137.186 91.652C137.783 91.652 138.322 91.7907 138.802 92.068C139.293 92.3453 139.682 92.7293 139.97 93.22C140.258 93.7107 140.402 94.2707 140.402 94.9V100.5H138.594V95.396C138.594 94.9587 138.514 94.5907 138.354 94.292C138.205 93.9827 137.991 93.748 137.714 93.588C137.447 93.4173 137.133 93.332 136.77 93.332C136.407 93.332 136.087 93.4173 135.81 93.588C135.533 93.748 135.314 93.9827 135.154 94.292C134.994 94.6013 134.914 94.9693 134.914 95.396V100.5H133.122V95.396C133.122 94.9587 133.042 94.5907 132.882 94.292C132.733 93.9827 132.519 93.748 132.242 93.588C131.975 93.4173 131.655 93.332 131.282 93.332C130.919 93.332 130.599 93.4173 130.322 93.588C130.045 93.748 129.826 93.9827 129.666 94.292C129.517 94.6013 129.442 94.9693 129.442 95.396V100.5H127.634ZM144.929 100.692C144.343 100.692 143.825 100.591 143.377 100.388C142.94 100.175 142.599 99.8867 142.353 99.524C142.108 99.1507 141.985 98.7133 141.985 98.212C141.985 97.7427 142.087 97.3213 142.289 96.948C142.503 96.5747 142.828 96.26 143.265 96.004C143.703 95.748 144.252 95.5667 144.913 95.46L147.921 94.964V96.388L145.265 96.852C144.785 96.9373 144.433 97.092 144.209 97.316C143.985 97.5293 143.873 97.8067 143.873 98.148C143.873 98.4787 143.996 98.7507 144.241 98.964C144.497 99.1667 144.823 99.268 145.217 99.268C145.708 99.268 146.135 99.1613 146.497 98.948C146.871 98.7347 147.159 98.452 147.361 98.1C147.564 97.7373 147.665 97.3373 147.665 96.9V94.676C147.665 94.2493 147.505 93.9027 147.185 93.636C146.876 93.3587 146.46 93.22 145.937 93.22C145.457 93.22 145.036 93.348 144.673 93.604C144.321 93.8493 144.06 94.1693 143.889 94.564L142.385 93.812C142.545 93.3853 142.807 93.012 143.169 92.692C143.532 92.3613 143.953 92.1053 144.433 91.924C144.924 91.7427 145.441 91.652 145.985 91.652C146.668 91.652 147.271 91.78 147.793 92.036C148.327 92.292 148.737 92.6493 149.025 93.108C149.324 93.556 149.473 94.0787 149.473 94.676V100.5H147.745V98.932L148.113 98.98C147.911 99.332 147.649 99.636 147.329 99.892C147.02 100.148 146.663 100.345 146.257 100.484C145.863 100.623 145.42 100.692 144.929 100.692ZM151.587 100.5V91.844H153.395V100.5H151.587ZM151.587 90.66V88.58H153.395V90.66H151.587ZM155.509 100.5V91.844H157.237V93.54L157.029 93.316C157.242 92.772 157.584 92.3613 158.053 92.084C158.522 91.796 159.066 91.652 159.685 91.652C160.325 91.652 160.89 91.7907 161.381 92.068C161.872 92.3453 162.256 92.7293 162.533 93.22C162.81 93.7107 162.949 94.276 162.949 94.916V100.5H161.157V95.396C161.157 94.9587 161.077 94.5907 160.917 94.292C160.757 93.9827 160.528 93.748 160.229 93.588C159.941 93.4173 159.61 93.332 159.237 93.332C158.864 93.332 158.528 93.4173 158.229 93.588C157.941 93.748 157.717 93.9827 157.557 94.292C157.397 94.6013 157.317 94.9693 157.317 95.396V100.5H155.509ZM171.425 100.596C170.518 100.596 169.814 100.34 169.313 99.828C168.812 99.316 168.561 98.596 168.561 97.668V93.476H167.041V91.844H167.281C167.686 91.844 168.001 91.7267 168.225 91.492C168.449 91.2573 168.561 90.9373 168.561 90.532V89.86H170.369V91.844H172.337V93.476H170.369V97.588C170.369 97.8867 170.417 98.1427 170.513 98.356C170.609 98.5587 170.764 98.7187 170.977 98.836C171.19 98.9427 171.468 98.996 171.809 98.996C171.894 98.996 171.99 98.9907 172.097 98.98C172.204 98.9693 172.305 98.9587 172.401 98.948V100.5C172.252 100.521 172.086 100.543 171.905 100.564C171.724 100.585 171.564 100.596 171.425 100.596ZM178.185 100.692C177.353 100.692 176.59 100.495 175.897 100.1C175.214 99.7053 174.67 99.1667 174.265 98.484C173.86 97.8013 173.657 97.028 173.657 96.164C173.657 95.2893 173.86 94.516 174.265 93.844C174.67 93.1613 175.214 92.628 175.897 92.244C176.58 91.8493 177.342 91.652 178.185 91.652C179.038 91.652 179.801 91.8493 180.473 92.244C181.156 92.628 181.694 93.1613 182.089 93.844C182.494 94.516 182.697 95.2893 182.697 96.164C182.697 97.0387 182.494 97.8173 182.089 98.5C181.684 99.1827 181.14 99.7213 180.457 100.116C179.774 100.5 179.017 100.692 178.185 100.692ZM178.185 99.012C178.697 99.012 179.15 98.8893 179.545 98.644C179.94 98.3987 180.249 98.0627 180.473 97.636C180.708 97.1987 180.825 96.708 180.825 96.164C180.825 95.62 180.708 95.1347 180.473 94.708C180.249 94.2813 179.94 93.9453 179.545 93.7C179.15 93.4547 178.697 93.332 178.185 93.332C177.684 93.332 177.23 93.4547 176.825 93.7C176.43 93.9453 176.116 94.2813 175.881 94.708C175.657 95.1347 175.545 95.62 175.545 96.164C175.545 96.708 175.657 97.1987 175.881 97.636C176.116 98.0627 176.43 98.3987 176.825 98.644C177.23 98.8893 177.684 99.012 178.185 99.012ZM184.462 103.7V91.844H186.19V93.636L185.982 93.22C186.302 92.7293 186.729 92.3453 187.262 92.068C187.796 91.7907 188.404 91.652 189.086 91.652C189.908 91.652 190.644 91.8493 191.294 92.244C191.956 92.6387 192.473 93.1773 192.846 93.86C193.23 94.5427 193.422 95.3107 193.422 96.164C193.422 97.0173 193.23 97.7853 192.846 98.468C192.473 99.1507 191.961 99.6947 191.31 100.1C190.66 100.495 189.918 100.692 189.086 100.692C188.414 100.692 187.801 100.553 187.246 100.276C186.702 99.9987 186.281 99.5987 185.982 99.076L186.27 98.74V103.7H184.462ZM188.91 99.012C189.422 99.012 189.876 98.8893 190.27 98.644C190.665 98.3987 190.974 98.0627 191.198 97.636C191.433 97.1987 191.55 96.708 191.55 96.164C191.55 95.62 191.433 95.1347 191.198 94.708C190.974 94.2813 190.665 93.9453 190.27 93.7C189.876 93.4547 189.422 93.332 188.91 93.332C188.409 93.332 187.956 93.4547 187.55 93.7C187.156 93.9453 186.841 94.2813 186.606 94.708C186.382 95.1347 186.27 95.62 186.27 96.164C186.27 96.708 186.382 97.1987 186.606 97.636C186.841 98.0627 187.156 98.3987 187.55 98.644C187.956 98.8893 188.409 99.012 188.91 99.012ZM195.181 100.5V91.844H196.989V100.5H195.181ZM195.181 90.66V88.58H196.989V90.66H195.181ZM203.215 100.692C202.351 100.692 201.583 100.495 200.911 100.1C200.25 99.6947 199.722 99.1507 199.327 98.468C198.943 97.7853 198.751 97.012 198.751 96.148C198.751 95.2947 198.943 94.5267 199.327 93.844C199.711 93.1613 200.239 92.628 200.911 92.244C201.583 91.8493 202.351 91.652 203.215 91.652C203.802 91.652 204.351 91.7587 204.863 91.972C205.375 92.1747 205.818 92.4573 206.191 92.82C206.575 93.1827 206.858 93.604 207.039 94.084L205.455 94.82C205.274 94.372 204.98 94.0147 204.575 93.748C204.18 93.4707 203.727 93.332 203.215 93.332C202.724 93.332 202.282 93.4547 201.887 93.7C201.503 93.9347 201.199 94.2707 200.975 94.708C200.751 95.1347 200.639 95.62 200.639 96.164C200.639 96.708 200.751 97.1987 200.975 97.636C201.199 98.0627 201.503 98.3987 201.887 98.644C202.282 98.8893 202.724 99.012 203.215 99.012C203.738 99.012 204.191 98.8787 204.575 98.612C204.97 98.3347 205.263 97.9667 205.455 97.508L207.039 98.26C206.868 98.7187 206.591 99.1347 206.207 99.508C205.834 99.8707 205.391 100.159 204.879 100.372C204.367 100.585 203.812 100.692 203.215 100.692ZM215.779 100.692C214.947 100.692 214.184 100.495 213.491 100.1C212.808 99.7053 212.264 99.1667 211.859 98.484C211.454 97.8013 211.251 97.028 211.251 96.164C211.251 95.2893 211.454 94.516 211.859 93.844C212.264 93.1613 212.808 92.628 213.491 92.244C214.174 91.8493 214.936 91.652 215.779 91.652C216.632 91.652 217.395 91.8493 218.067 92.244C218.75 92.628 219.288 93.1613 219.683 93.844C220.088 94.516 220.291 95.2893 220.291 96.164C220.291 97.0387 220.088 97.8173 219.683 98.5C219.278 99.1827 218.734 99.7213 218.051 100.116C217.368 100.5 216.611 100.692 215.779 100.692ZM215.779 99.012C216.291 99.012 216.744 98.8893 217.139 98.644C217.534 98.3987 217.843 98.0627 218.067 97.636C218.302 97.1987 218.419 96.708 218.419 96.164C218.419 95.62 218.302 95.1347 218.067 94.708C217.843 94.2813 217.534 93.9453 217.139 93.7C216.744 93.4547 216.291 93.332 215.779 93.332C215.278 93.332 214.824 93.4547 214.419 93.7C214.024 93.9453 213.71 94.2813 213.475 94.708C213.251 95.1347 213.139 95.62 213.139 96.164C213.139 96.708 213.251 97.1987 213.475 97.636C213.71 98.0627 214.024 98.3987 214.419 98.644C214.824 98.8893 215.278 99.012 215.779 99.012ZM222.798 100.5V93.476H221.198V91.844H222.798V91.396C222.798 90.7453 222.931 90.2013 223.198 89.764C223.464 89.316 223.832 88.9747 224.302 88.74C224.782 88.5053 225.331 88.388 225.95 88.388C226.067 88.388 226.2 88.3987 226.35 88.42C226.499 88.4307 226.622 88.4467 226.718 88.468V90.036C226.632 90.0147 226.536 90.004 226.43 90.004C226.323 89.9933 226.238 89.988 226.174 89.988C225.694 89.988 225.31 90.1 225.022 90.324C224.734 90.5373 224.59 90.8947 224.59 91.396V91.844H226.574V93.476H224.59V100.5H222.798ZM234.8 100.596C233.893 100.596 233.189 100.34 232.688 99.828C232.187 99.316 231.936 98.596 231.936 97.668V93.476H230.416V91.844H230.656C231.061 91.844 231.376 91.7267 231.6 91.492C231.824 91.2573 231.936 90.9373 231.936 90.532V89.86H233.744V91.844H235.712V93.476H233.744V97.588C233.744 97.8867 233.792 98.1427 233.888 98.356C233.984 98.5587 234.139 98.7187 234.352 98.836C234.565 98.9427 234.843 98.996 235.184 98.996C235.269 98.996 235.365 98.9907 235.472 98.98C235.579 98.9693 235.68 98.9587 235.776 98.948V100.5C235.627 100.521 235.461 100.543 235.28 100.564C235.099 100.585 234.939 100.596 234.8 100.596ZM237.54 100.5V88.388H239.348V93.54L239.06 93.316C239.274 92.772 239.615 92.3613 240.084 92.084C240.554 91.796 241.098 91.652 241.716 91.652C242.356 91.652 242.922 91.7907 243.412 92.068C243.903 92.3453 244.287 92.7293 244.564 93.22C244.842 93.7107 244.98 94.2707 244.98 94.9V100.5H243.188V95.396C243.188 94.9587 243.103 94.5907 242.932 94.292C242.772 93.9827 242.548 93.748 242.26 93.588C241.972 93.4173 241.642 93.332 241.268 93.332C240.906 93.332 240.575 93.4173 240.276 93.588C239.988 93.748 239.759 93.9827 239.588 94.292C239.428 94.6013 239.348 94.9693 239.348 95.396V100.5H237.54ZM250.979 100.692C250.115 100.692 249.347 100.495 248.675 100.1C248.014 99.6947 247.497 99.1507 247.123 98.468C246.75 97.7747 246.563 97.0013 246.563 96.148C246.563 95.2733 246.75 94.5 247.123 93.828C247.507 93.156 248.019 92.628 248.659 92.244C249.299 91.8493 250.025 91.652 250.835 91.652C251.486 91.652 252.067 91.764 252.579 91.988C253.091 92.212 253.523 92.5213 253.875 92.916C254.227 93.3 254.494 93.7427 254.675 94.244C254.867 94.7453 254.963 95.2787 254.963 95.844C254.963 95.9827 254.958 96.1267 254.947 96.276C254.937 96.4253 254.915 96.564 254.883 96.692H247.987V95.252H253.859L252.995 95.908C253.102 95.3853 253.065 94.9213 252.883 94.516C252.713 94.1 252.446 93.7747 252.083 93.54C251.731 93.2947 251.315 93.172 250.835 93.172C250.355 93.172 249.929 93.2947 249.555 93.54C249.182 93.7747 248.894 94.116 248.691 94.564C248.489 95.0013 248.409 95.5347 248.451 96.164C248.398 96.7507 248.478 97.2627 248.691 97.7C248.915 98.1373 249.225 98.4787 249.619 98.724C250.025 98.9693 250.483 99.092 250.995 99.092C251.518 99.092 251.961 98.9747 252.323 98.74C252.697 98.5053 252.99 98.2013 253.203 97.828L254.675 98.548C254.505 98.9533 254.238 99.3213 253.875 99.652C253.523 99.972 253.097 100.228 252.595 100.42C252.105 100.601 251.566 100.692 250.979 100.692ZM71.5716 127.7V115.844H73.2996V117.636L73.0916 117.22C73.4116 116.729 73.8383 116.345 74.3716 116.068C74.905 115.791 75.513 115.652 76.1956 115.652C77.017 115.652 77.753 115.849 78.4036 116.244C79.065 116.639 79.5823 117.177 79.9556 117.86C80.3396 118.543 80.5316 119.311 80.5316 120.164C80.5316 121.017 80.3396 121.785 79.9556 122.468C79.5823 123.151 79.0703 123.695 78.4196 124.1C77.769 124.495 77.0276 124.692 76.1956 124.692C75.5236 124.692 74.9103 124.553 74.3556 124.276C73.8116 123.999 73.3903 123.599 73.0916 123.076L73.3796 122.74V127.7H71.5716ZM76.0196 123.012C76.5316 123.012 76.985 122.889 77.3796 122.644C77.7743 122.399 78.0836 122.063 78.3076 121.636C78.5423 121.199 78.6596 120.708 78.6596 120.164C78.6596 119.62 78.5423 119.135 78.3076 118.708C78.0836 118.281 77.7743 117.945 77.3796 117.7C76.985 117.455 76.5316 117.332 76.0196 117.332C75.5183 117.332 75.065 117.455 74.6596 117.7C74.265 117.945 73.9503 118.281 73.7156 118.708C73.4916 119.135 73.3796 119.62 73.3796 120.164C73.3796 120.708 73.4916 121.199 73.7156 121.636C73.9503 122.063 74.265 122.399 74.6596 122.644C75.065 122.889 75.5183 123.012 76.0196 123.012ZM86.4664 124.692C85.6344 124.692 84.8717 124.495 84.1784 124.1C83.4957 123.705 82.9517 123.167 82.5464 122.484C82.141 121.801 81.9384 121.028 81.9384 120.164C81.9384 119.289 82.141 118.516 82.5464 117.844C82.9517 117.161 83.4957 116.628 84.1784 116.244C84.861 115.849 85.6237 115.652 86.4664 115.652C87.3197 115.652 88.0824 115.849 88.7544 116.244C89.437 116.628 89.9757 117.161 90.3704 117.844C90.7757 118.516 90.9784 119.289 90.9784 120.164C90.9784 121.039 90.7757 121.817 90.3704 122.5C89.965 123.183 89.421 123.721 88.7384 124.116C88.0557 124.5 87.2984 124.692 86.4664 124.692ZM86.4664 123.012C86.9784 123.012 87.4317 122.889 87.8264 122.644C88.221 122.399 88.5304 122.063 88.7544 121.636C88.989 121.199 89.1064 120.708 89.1064 120.164C89.1064 119.62 88.989 119.135 88.7544 118.708C88.5304 118.281 88.221 117.945 87.8264 117.7C87.4317 117.455 86.9784 117.332 86.4664 117.332C85.965 117.332 85.5117 117.455 85.1064 117.7C84.7117 117.945 84.397 118.281 84.1624 118.708C83.9384 119.135 83.8264 119.62 83.8264 120.164C83.8264 120.708 83.9384 121.199 84.1624 121.636C84.397 122.063 84.7117 122.399 85.1064 122.644C85.5117 122.889 85.965 123.012 86.4664 123.012ZM96.7435 124.692C95.9115 124.692 95.1648 124.495 94.5035 124.1C93.8528 123.695 93.3355 123.151 92.9515 122.468C92.5782 121.785 92.3915 121.017 92.3915 120.164C92.3915 119.311 92.5835 118.543 92.9675 117.86C93.3515 117.177 93.8688 116.639 94.5195 116.244C95.1702 115.849 95.9062 115.652 96.7275 115.652C97.4208 115.652 98.0342 115.791 98.5675 116.068C99.1008 116.345 99.5222 116.729 99.8315 117.22L99.5595 117.636V112.388H101.352V124.5H99.6395V122.74L99.8475 123.076C99.5488 123.599 99.1222 123.999 98.5675 124.276C98.0128 124.553 97.4048 124.692 96.7435 124.692ZM96.9195 123.012C97.4208 123.012 97.8688 122.889 98.2635 122.644C98.6688 122.399 98.9835 122.063 99.2075 121.636C99.4422 121.199 99.5595 120.708 99.5595 120.164C99.5595 119.62 99.4422 119.135 99.2075 118.708C98.9835 118.281 98.6688 117.945 98.2635 117.7C97.8688 117.455 97.4208 117.332 96.9195 117.332C96.4182 117.332 95.9648 117.455 95.5595 117.7C95.1542 117.945 94.8395 118.281 94.6155 118.708C94.3915 119.135 94.2795 119.62 94.2795 120.164C94.2795 120.708 94.3915 121.199 94.6155 121.636C94.8395 122.063 95.1488 122.399 95.5435 122.644C95.9488 122.889 96.4075 123.012 96.9195 123.012ZM107.574 124.692C106.71 124.692 105.942 124.495 105.27 124.1C104.609 123.695 104.081 123.151 103.686 122.468C103.302 121.785 103.11 121.012 103.11 120.148C103.11 119.295 103.302 118.527 103.686 117.844C104.07 117.161 104.598 116.628 105.27 116.244C105.942 115.849 106.71 115.652 107.574 115.652C108.161 115.652 108.71 115.759 109.222 115.972C109.734 116.175 110.177 116.457 110.55 116.82C110.934 117.183 111.217 117.604 111.398 118.084L109.814 118.82C109.633 118.372 109.34 118.015 108.934 117.748C108.54 117.471 108.086 117.332 107.574 117.332C107.084 117.332 106.641 117.455 106.246 117.7C105.862 117.935 105.558 118.271 105.334 118.708C105.11 119.135 104.998 119.62 104.998 120.164C104.998 120.708 105.11 121.199 105.334 121.636C105.558 122.063 105.862 122.399 106.246 122.644C106.641 122.889 107.084 123.012 107.574 123.012C108.097 123.012 108.55 122.879 108.934 122.612C109.329 122.335 109.622 121.967 109.814 121.508L111.398 122.26C111.228 122.719 110.95 123.135 110.566 123.508C110.193 123.871 109.75 124.159 109.238 124.372C108.726 124.585 108.172 124.692 107.574 124.692ZM115.679 124.692C115.093 124.692 114.575 124.591 114.127 124.388C113.69 124.175 113.349 123.887 113.103 123.524C112.858 123.151 112.735 122.713 112.735 122.212C112.735 121.743 112.837 121.321 113.039 120.948C113.253 120.575 113.578 120.26 114.015 120.004C114.453 119.748 115.002 119.567 115.663 119.46L118.671 118.964V120.388L116.015 120.852C115.535 120.937 115.183 121.092 114.959 121.316C114.735 121.529 114.623 121.807 114.623 122.148C114.623 122.479 114.746 122.751 114.991 122.964C115.247 123.167 115.573 123.268 115.967 123.268C116.458 123.268 116.885 123.161 117.247 122.948C117.621 122.735 117.909 122.452 118.111 122.1C118.314 121.737 118.415 121.337 118.415 120.9V118.676C118.415 118.249 118.255 117.903 117.935 117.636C117.626 117.359 117.21 117.22 116.687 117.22C116.207 117.22 115.786 117.348 115.423 117.604C115.071 117.849 114.81 118.169 114.639 118.564L113.135 117.812C113.295 117.385 113.557 117.012 113.919 116.692C114.282 116.361 114.703 116.105 115.183 115.924C115.674 115.743 116.191 115.652 116.735 115.652C117.418 115.652 118.021 115.78 118.543 116.036C119.077 116.292 119.487 116.649 119.775 117.108C120.074 117.556 120.223 118.079 120.223 118.676V124.5H118.495V122.932L118.863 122.98C118.661 123.332 118.399 123.636 118.079 123.892C117.77 124.148 117.413 124.345 117.007 124.484C116.613 124.623 116.17 124.692 115.679 124.692ZM125.537 124.692C124.652 124.692 123.873 124.473 123.201 124.036C122.54 123.599 122.076 123.012 121.809 122.276L123.201 121.62C123.436 122.111 123.756 122.5 124.161 122.788C124.577 123.076 125.036 123.22 125.537 123.22C125.964 123.22 126.311 123.124 126.577 122.932C126.844 122.74 126.977 122.479 126.977 122.148C126.977 121.935 126.919 121.764 126.801 121.636C126.684 121.497 126.535 121.385 126.353 121.3C126.183 121.215 126.007 121.151 125.825 121.108L124.465 120.724C123.719 120.511 123.159 120.191 122.785 119.764C122.423 119.327 122.241 118.82 122.241 118.244C122.241 117.721 122.375 117.268 122.641 116.884C122.908 116.489 123.276 116.185 123.745 115.972C124.215 115.759 124.743 115.652 125.329 115.652C126.119 115.652 126.823 115.849 127.441 116.244C128.06 116.628 128.497 117.167 128.753 117.86L127.361 118.516C127.191 118.1 126.919 117.769 126.545 117.524C126.183 117.279 125.772 117.156 125.313 117.156C124.919 117.156 124.604 117.252 124.369 117.444C124.135 117.625 124.017 117.865 124.017 118.164C124.017 118.367 124.071 118.537 124.177 118.676C124.284 118.804 124.423 118.911 124.593 118.996C124.764 119.071 124.94 119.135 125.121 119.188L126.529 119.604C127.244 119.807 127.793 120.127 128.177 120.564C128.561 120.991 128.753 121.503 128.753 122.1C128.753 122.612 128.615 123.065 128.337 123.46C128.071 123.844 127.697 124.148 127.217 124.372C126.737 124.585 126.177 124.692 125.537 124.692ZM134.269 124.596C133.362 124.596 132.658 124.34 132.157 123.828C131.655 123.316 131.405 122.596 131.405 121.668V117.476H129.885V115.844H130.125C130.53 115.844 130.845 115.727 131.069 115.492C131.293 115.257 131.405 114.937 131.405 114.532V113.86H133.213V115.844H135.181V117.476H133.213V121.588C133.213 121.887 133.261 122.143 133.357 122.356C133.453 122.559 133.607 122.719 133.821 122.836C134.034 122.943 134.311 122.996 134.653 122.996C134.738 122.996 134.834 122.991 134.941 122.98C135.047 122.969 135.149 122.959 135.245 122.948V124.5C135.095 124.521 134.93 124.543 134.749 124.564C134.567 124.585 134.407 124.596 134.269 124.596ZM137.473 116.852V115.972C137.825 115.887 138.097 115.732 138.289 115.508C138.481 115.273 138.598 114.991 138.641 114.66H137.793V112.58H139.633V113.94C139.633 114.719 139.452 115.364 139.089 115.876C138.726 116.377 138.188 116.703 137.473 116.852ZM145.459 124.692C144.574 124.692 143.795 124.473 143.123 124.036C142.462 123.599 141.998 123.012 141.731 122.276L143.123 121.62C143.358 122.111 143.678 122.5 144.083 122.788C144.499 123.076 144.958 123.22 145.459 123.22C145.886 123.22 146.232 123.124 146.499 122.932C146.766 122.74 146.899 122.479 146.899 122.148C146.899 121.935 146.84 121.764 146.723 121.636C146.606 121.497 146.456 121.385 146.275 121.3C146.104 121.215 145.928 121.151 145.747 121.108L144.387 120.724C143.64 120.511 143.08 120.191 142.707 119.764C142.344 119.327 142.163 118.82 142.163 118.244C142.163 117.721 142.296 117.268 142.563 116.884C142.83 116.489 143.198 116.185 143.667 115.972C144.136 115.759 144.664 115.652 145.251 115.652C146.04 115.652 146.744 115.849 147.363 116.244C147.982 116.628 148.419 117.167 148.675 117.86L147.283 118.516C147.112 118.1 146.84 117.769 146.467 117.524C146.104 117.279 145.694 117.156 145.235 117.156C144.84 117.156 144.526 117.252 144.291 117.444C144.056 117.625 143.939 117.865 143.939 118.164C143.939 118.367 143.992 118.537 144.099 118.676C144.206 118.804 144.344 118.911 144.515 118.996C144.686 119.071 144.862 119.135 145.043 119.188L146.451 119.604C147.166 119.807 147.715 120.127 148.099 120.564C148.483 120.991 148.675 121.503 148.675 122.1C148.675 122.612 148.536 123.065 148.259 123.46C147.992 123.844 147.619 124.148 147.139 124.372C146.659 124.585 146.099 124.692 145.459 124.692ZM153.42 124.5V112.58H161.276V114.26H155.308V117.684H160.956V119.364H155.308V122.82H161.276V124.5H153.42ZM162.853 127.7V115.844H164.581V117.636L164.373 117.22C164.693 116.729 165.12 116.345 165.653 116.068C166.186 115.791 166.794 115.652 167.477 115.652C168.298 115.652 169.034 115.849 169.685 116.244C170.346 116.639 170.864 117.177 171.237 117.86C171.621 118.543 171.813 119.311 171.813 120.164C171.813 121.017 171.621 121.785 171.237 122.468C170.864 123.151 170.352 123.695 169.701 124.1C169.05 124.495 168.309 124.692 167.477 124.692C166.805 124.692 166.192 124.553 165.637 124.276C165.093 123.999 164.672 123.599 164.373 123.076L164.661 122.74V127.7H162.853ZM167.301 123.012C167.813 123.012 168.266 122.889 168.661 122.644C169.056 122.399 169.365 122.063 169.589 121.636C169.824 121.199 169.941 120.708 169.941 120.164C169.941 119.62 169.824 119.135 169.589 118.708C169.365 118.281 169.056 117.945 168.661 117.7C168.266 117.455 167.813 117.332 167.301 117.332C166.8 117.332 166.346 117.455 165.941 117.7C165.546 117.945 165.232 118.281 164.997 118.708C164.773 119.135 164.661 119.62 164.661 120.164C164.661 120.708 164.773 121.199 164.997 121.636C165.232 122.063 165.546 122.399 165.941 122.644C166.346 122.889 166.8 123.012 167.301 123.012ZM173.572 124.5V115.844H175.38V124.5H173.572ZM173.572 114.66V112.58H175.38V114.66H173.572ZM180.694 124.692C179.808 124.692 179.03 124.473 178.358 124.036C177.696 123.599 177.232 123.012 176.965 122.276L178.358 121.62C178.592 122.111 178.912 122.5 179.318 122.788C179.734 123.076 180.192 123.22 180.694 123.22C181.12 123.22 181.467 123.124 181.734 122.932C182 122.74 182.134 122.479 182.134 122.148C182.134 121.935 182.075 121.764 181.958 121.636C181.84 121.497 181.691 121.385 181.51 121.3C181.339 121.215 181.163 121.151 180.982 121.108L179.622 120.724C178.875 120.511 178.315 120.191 177.942 119.764C177.579 119.327 177.398 118.82 177.398 118.244C177.398 117.721 177.531 117.268 177.798 116.884C178.064 116.489 178.432 116.185 178.902 115.972C179.371 115.759 179.899 115.652 180.486 115.652C181.275 115.652 181.979 115.849 182.598 116.244C183.216 116.628 183.654 117.167 183.91 117.86L182.518 118.516C182.347 118.1 182.075 117.769 181.702 117.524C181.339 117.279 180.928 117.156 180.47 117.156C180.075 117.156 179.76 117.252 179.526 117.444C179.291 117.625 179.174 117.865 179.174 118.164C179.174 118.367 179.227 118.537 179.334 118.676C179.44 118.804 179.579 118.911 179.75 118.996C179.92 119.071 180.096 119.135 180.278 119.188L181.686 119.604C182.4 119.807 182.95 120.127 183.334 120.564C183.718 120.991 183.91 121.503 183.91 122.1C183.91 122.612 183.771 123.065 183.494 123.46C183.227 123.844 182.854 124.148 182.374 124.372C181.894 124.585 181.334 124.692 180.694 124.692ZM189.857 124.692C189.025 124.692 188.262 124.495 187.569 124.1C186.886 123.705 186.342 123.167 185.937 122.484C185.532 121.801 185.329 121.028 185.329 120.164C185.329 119.289 185.532 118.516 185.937 117.844C186.342 117.161 186.886 116.628 187.569 116.244C188.252 115.849 189.014 115.652 189.857 115.652C190.71 115.652 191.473 115.849 192.145 116.244C192.828 116.628 193.366 117.161 193.761 117.844C194.166 118.516 194.369 119.289 194.369 120.164C194.369 121.039 194.166 121.817 193.761 122.5C193.356 123.183 192.812 123.721 192.129 124.116C191.446 124.5 190.689 124.692 189.857 124.692ZM189.857 123.012C190.369 123.012 190.822 122.889 191.217 122.644C191.612 122.399 191.921 122.063 192.145 121.636C192.38 121.199 192.497 120.708 192.497 120.164C192.497 119.62 192.38 119.135 192.145 118.708C191.921 118.281 191.612 117.945 191.217 117.7C190.822 117.455 190.369 117.332 189.857 117.332C189.356 117.332 188.902 117.455 188.497 117.7C188.102 117.945 187.788 118.281 187.553 118.708C187.329 119.135 187.217 119.62 187.217 120.164C187.217 120.708 187.329 121.199 187.553 121.636C187.788 122.063 188.102 122.399 188.497 122.644C188.902 122.889 189.356 123.012 189.857 123.012ZM200.134 124.692C199.302 124.692 198.555 124.495 197.894 124.1C197.243 123.695 196.726 123.151 196.342 122.468C195.969 121.785 195.782 121.017 195.782 120.164C195.782 119.311 195.974 118.543 196.358 117.86C196.742 117.177 197.259 116.639 197.91 116.244C198.561 115.849 199.297 115.652 200.118 115.652C200.811 115.652 201.425 115.791 201.958 116.068C202.491 116.345 202.913 116.729 203.222 117.22L202.95 117.636V112.388H204.742V124.5H203.03V122.74L203.238 123.076C202.939 123.599 202.513 123.999 201.958 124.276C201.403 124.553 200.795 124.692 200.134 124.692ZM200.31 123.012C200.811 123.012 201.259 122.889 201.654 122.644C202.059 122.399 202.374 122.063 202.598 121.636C202.833 121.199 202.95 120.708 202.95 120.164C202.95 119.62 202.833 119.135 202.598 118.708C202.374 118.281 202.059 117.945 201.654 117.7C201.259 117.455 200.811 117.332 200.31 117.332C199.809 117.332 199.355 117.455 198.95 117.7C198.545 117.945 198.23 118.281 198.006 118.708C197.782 119.135 197.67 119.62 197.67 120.164C197.67 120.708 197.782 121.199 198.006 121.636C198.23 122.063 198.539 122.399 198.934 122.644C199.339 122.889 199.798 123.012 200.31 123.012ZM210.917 124.692C210.053 124.692 209.285 124.495 208.613 124.1C207.952 123.695 207.434 123.151 207.061 122.468C206.688 121.775 206.501 121.001 206.501 120.148C206.501 119.273 206.688 118.5 207.061 117.828C207.445 117.156 207.957 116.628 208.597 116.244C209.237 115.849 209.962 115.652 210.773 115.652C211.424 115.652 212.005 115.764 212.517 115.988C213.029 116.212 213.461 116.521 213.813 116.916C214.165 117.3 214.432 117.743 214.613 118.244C214.805 118.745 214.901 119.279 214.901 119.844C214.901 119.983 214.896 120.127 214.885 120.276C214.874 120.425 214.853 120.564 214.821 120.692H207.925V119.252H213.797L212.933 119.908C213.04 119.385 213.002 118.921 212.821 118.516C212.65 118.1 212.384 117.775 212.021 117.54C211.669 117.295 211.253 117.172 210.773 117.172C210.293 117.172 209.866 117.295 209.493 117.54C209.12 117.775 208.832 118.116 208.629 118.564C208.426 119.001 208.346 119.535 208.389 120.164C208.336 120.751 208.416 121.263 208.629 121.7C208.853 122.137 209.162 122.479 209.557 122.724C209.962 122.969 210.421 123.092 210.933 123.092C211.456 123.092 211.898 122.975 212.261 122.74C212.634 122.505 212.928 122.201 213.141 121.828L214.613 122.548C214.442 122.953 214.176 123.321 213.813 123.652C213.461 123.972 213.034 124.228 212.533 124.42C212.042 124.601 211.504 124.692 210.917 124.692ZM218.745 120.948V120.676C218.745 120.207 218.82 119.791 218.969 119.428C219.129 119.065 219.327 118.74 219.561 118.452C219.807 118.153 220.057 117.881 220.313 117.636C220.676 117.295 220.996 116.964 221.273 116.644C221.561 116.324 221.705 115.951 221.705 115.524C221.705 115.257 221.641 115.017 221.513 114.804C221.385 114.58 221.193 114.404 220.937 114.276C220.692 114.137 220.388 114.068 220.025 114.068C219.524 114.068 219.092 114.223 218.729 114.532C218.377 114.831 218.153 115.236 218.057 115.748L216.377 115.348C216.473 114.761 216.687 114.249 217.017 113.812C217.359 113.364 217.785 113.017 218.297 112.772C218.82 112.516 219.407 112.388 220.057 112.388C220.793 112.388 221.423 112.537 221.945 112.836C222.479 113.124 222.884 113.503 223.161 113.972C223.439 114.441 223.577 114.948 223.577 115.492C223.577 115.929 223.487 116.324 223.305 116.676C223.135 117.017 222.911 117.332 222.633 117.62C222.367 117.908 222.089 118.191 221.801 118.468C221.46 118.799 221.156 119.145 220.889 119.508C220.633 119.86 220.505 120.276 220.505 120.756V120.948H218.745ZM218.745 124.5V122.42H220.585V124.5H218.745Z" fill="#212121"/>
<path d="M102.922 172.5V160.58H107.13C107.919 160.58 108.612 160.729 109.21 161.028C109.807 161.327 110.271 161.753 110.602 162.308C110.943 162.863 111.114 163.513 111.114 164.26C111.114 165.007 110.943 165.657 110.602 166.212C110.271 166.756 109.807 167.183 109.21 167.492C108.623 167.791 107.93 167.94 107.13 167.94H104.49V172.5H102.922ZM104.49 166.5H107.178C107.658 166.5 108.074 166.409 108.426 166.228C108.778 166.047 109.05 165.785 109.242 165.444C109.434 165.103 109.53 164.708 109.53 164.26C109.53 163.801 109.434 163.407 109.242 163.076C109.05 162.735 108.778 162.473 108.426 162.292C108.074 162.111 107.658 162.02 107.178 162.02H104.49V166.5ZM113.058 172.5V163.876H114.514V165.46L114.354 165.236C114.557 164.745 114.866 164.383 115.282 164.148C115.698 163.903 116.205 163.78 116.802 163.78H117.33V165.188H116.578C115.97 165.188 115.48 165.38 115.106 165.764C114.733 166.137 114.546 166.671 114.546 167.364V172.5H113.058ZM122.62 172.692C121.788 172.692 121.047 172.495 120.396 172.1C119.745 171.705 119.233 171.167 118.86 170.484C118.487 169.791 118.3 169.017 118.3 168.164C118.3 167.3 118.481 166.532 118.844 165.86C119.217 165.188 119.719 164.66 120.348 164.276C120.988 163.881 121.703 163.684 122.492 163.684C123.132 163.684 123.697 163.801 124.188 164.036C124.689 164.26 125.111 164.569 125.452 164.964C125.804 165.348 126.071 165.791 126.252 166.292C126.444 166.783 126.54 167.295 126.54 167.828C126.54 167.945 126.529 168.079 126.508 168.228C126.497 168.367 126.481 168.5 126.46 168.628H119.388V167.348H125.596L124.892 167.924C124.988 167.369 124.935 166.873 124.732 166.436C124.529 165.999 124.231 165.652 123.836 165.396C123.441 165.14 122.993 165.012 122.492 165.012C121.991 165.012 121.532 165.14 121.116 165.396C120.7 165.652 120.375 166.02 120.14 166.5C119.916 166.969 119.825 167.529 119.868 168.18C119.825 168.809 119.921 169.364 120.156 169.844C120.401 170.313 120.743 170.681 121.18 170.948C121.628 171.204 122.113 171.332 122.636 171.332C123.212 171.332 123.697 171.199 124.092 170.932C124.487 170.665 124.807 170.324 125.052 169.908L126.3 170.548C126.129 170.943 125.863 171.305 125.5 171.636C125.148 171.956 124.727 172.212 124.236 172.404C123.756 172.596 123.217 172.692 122.62 172.692ZM131.568 172.692C130.704 172.692 129.952 172.479 129.312 172.052C128.672 171.625 128.219 171.049 127.952 170.324L129.136 169.748C129.381 170.26 129.717 170.665 130.144 170.964C130.571 171.263 131.045 171.412 131.568 171.412C132.037 171.412 132.427 171.3 132.736 171.076C133.045 170.852 133.2 170.559 133.2 170.196C133.2 169.94 133.125 169.737 132.976 169.588C132.837 169.428 132.667 169.305 132.464 169.22C132.261 169.124 132.075 169.055 131.904 169.012L130.608 168.644C129.829 168.42 129.259 168.1 128.896 167.684C128.544 167.268 128.368 166.783 128.368 166.228C128.368 165.716 128.496 165.273 128.752 164.9C129.019 164.516 129.376 164.217 129.824 164.004C130.283 163.791 130.795 163.684 131.36 163.684C132.117 163.684 132.795 163.876 133.392 164.26C134 164.644 134.432 165.183 134.688 165.876L133.472 166.436C133.28 165.988 132.992 165.636 132.608 165.38C132.224 165.113 131.792 164.98 131.312 164.98C130.875 164.98 130.528 165.092 130.272 165.316C130.016 165.529 129.888 165.801 129.888 166.132C129.888 166.377 129.952 166.58 130.08 166.74C130.208 166.889 130.363 167.007 130.544 167.092C130.725 167.167 130.901 167.231 131.072 167.284L132.48 167.7C133.184 167.903 133.728 168.217 134.112 168.644C134.507 169.071 134.704 169.583 134.704 170.18C134.704 170.66 134.571 171.092 134.304 171.476C134.037 171.86 133.669 172.159 133.2 172.372C132.731 172.585 132.187 172.692 131.568 172.692ZM139.74 172.692C138.876 172.692 138.124 172.479 137.484 172.052C136.844 171.625 136.391 171.049 136.124 170.324L137.308 169.748C137.553 170.26 137.889 170.665 138.316 170.964C138.743 171.263 139.217 171.412 139.74 171.412C140.209 171.412 140.599 171.3 140.908 171.076C141.217 170.852 141.372 170.559 141.372 170.196C141.372 169.94 141.297 169.737 141.148 169.588C141.009 169.428 140.839 169.305 140.636 169.22C140.433 169.124 140.247 169.055 140.076 169.012L138.78 168.644C138.001 168.42 137.431 168.1 137.068 167.684C136.716 167.268 136.54 166.783 136.54 166.228C136.54 165.716 136.668 165.273 136.924 164.9C137.191 164.516 137.548 164.217 137.996 164.004C138.455 163.791 138.967 163.684 139.532 163.684C140.289 163.684 140.967 163.876 141.564 164.26C142.172 164.644 142.604 165.183 142.86 165.876L141.644 166.436C141.452 165.988 141.164 165.636 140.78 165.38C140.396 165.113 139.964 164.98 139.484 164.98C139.047 164.98 138.7 165.092 138.444 165.316C138.188 165.529 138.06 165.801 138.06 166.132C138.06 166.377 138.124 166.58 138.252 166.74C138.38 166.889 138.535 167.007 138.716 167.092C138.897 167.167 139.073 167.231 139.244 167.284L140.652 167.7C141.356 167.903 141.9 168.217 142.284 168.644C142.679 169.071 142.876 169.583 142.876 170.18C142.876 170.66 142.743 171.092 142.476 171.476C142.209 171.86 141.841 172.159 141.372 172.372C140.903 172.585 140.359 172.692 139.74 172.692ZM151.094 172.596C150.251 172.596 149.6 172.356 149.142 171.876C148.694 171.396 148.47 170.719 148.47 169.844V165.3H146.902V163.876H147.222C147.606 163.876 147.91 163.759 148.134 163.524C148.358 163.289 148.47 162.98 148.47 162.596V161.892H149.958V163.876H151.894V165.3H149.958V169.796C149.958 170.084 150 170.335 150.086 170.548C150.182 170.761 150.336 170.932 150.549 171.06C150.763 171.177 151.046 171.236 151.398 171.236C151.472 171.236 151.563 171.231 151.67 171.22C151.787 171.209 151.894 171.199 151.99 171.188V172.5C151.851 172.532 151.696 172.553 151.526 172.564C151.355 172.585 151.211 172.596 151.094 172.596ZM157.795 172.692C156.963 172.692 156.211 172.5 155.539 172.116C154.867 171.721 154.334 171.183 153.939 170.5C153.544 169.817 153.347 169.044 153.347 168.18C153.347 167.316 153.539 166.548 153.923 165.876C154.318 165.204 154.851 164.671 155.523 164.276C156.195 163.881 156.952 163.684 157.795 163.684C158.627 163.684 159.379 163.881 160.051 164.276C160.723 164.66 161.251 165.188 161.635 165.86C162.03 166.532 162.227 167.305 162.227 168.18C162.227 169.055 162.024 169.833 161.619 170.516C161.214 171.188 160.675 171.721 160.003 172.116C159.342 172.5 158.606 172.692 157.795 172.692ZM157.795 171.252C158.328 171.252 158.808 171.119 159.235 170.852C159.672 170.585 160.014 170.217 160.259 169.748C160.515 169.279 160.643 168.756 160.643 168.18C160.643 167.593 160.515 167.076 160.259 166.628C160.014 166.169 159.672 165.807 159.235 165.54C158.808 165.263 158.328 165.124 157.795 165.124C157.251 165.124 156.76 165.263 156.323 165.54C155.896 165.807 155.555 166.169 155.299 166.628C155.043 167.076 154.915 167.593 154.915 168.18C154.915 168.756 155.043 169.279 155.299 169.748C155.555 170.217 155.896 170.585 156.323 170.852C156.76 171.119 157.251 171.252 157.795 171.252ZM167.109 172.5V160.58H174.661V162.02H168.677V165.876H174.101V167.316H168.677V172.5H167.109ZM176.261 172.5V160.388H177.749V172.5H176.261ZM180.058 172.5V163.876H181.546V172.5H180.058ZM180.058 162.5V160.58H181.546V162.5H180.058ZM183.855 175.7V163.876H185.311V165.732L185.119 165.364C185.439 164.852 185.876 164.447 186.431 164.148C186.986 163.839 187.62 163.684 188.335 163.684C189.146 163.684 189.871 163.881 190.511 164.276C191.162 164.671 191.674 165.209 192.047 165.892C192.42 166.564 192.607 167.332 192.607 168.196C192.607 169.039 192.42 169.801 192.047 170.484C191.674 171.167 191.162 171.705 190.511 172.1C189.871 172.495 189.14 172.692 188.319 172.692C187.626 172.692 186.991 172.537 186.415 172.228C185.85 171.919 185.412 171.481 185.103 170.916L185.343 170.66V175.7H183.855ZM188.207 171.252C188.751 171.252 189.236 171.119 189.663 170.852C190.09 170.585 190.42 170.223 190.655 169.764C190.9 169.295 191.023 168.772 191.023 168.196C191.023 167.599 190.9 167.076 190.655 166.628C190.42 166.169 190.09 165.807 189.663 165.54C189.236 165.263 188.751 165.124 188.207 165.124C187.663 165.124 187.172 165.257 186.735 165.524C186.308 165.791 185.967 166.159 185.711 166.628C185.466 167.087 185.343 167.609 185.343 168.196C185.343 168.772 185.466 169.295 185.711 169.764C185.967 170.223 186.308 170.585 186.735 170.852C187.172 171.119 187.663 171.252 188.207 171.252Z" fill="#475467"/>
</g>
<defs>
<filter id="filter0_ddd_532_4400" x="28.0167" y="12" width="238.967" height="267" filterUnits="userSpaceOnUse" color-interpolation-filters="sRGB">
<feFlood flood-opacity="0" result="BackgroundImageFix"/>
<feColorMatrix in="SourceAlpha" type="matrix" values="0 0 0 0 0 0 0 0 0 0 0 0 0 0 0 0 0 0 127 0" result="hardAlpha"/>
<feMorphology radius="4" operator="erode" in="SourceAlpha" result="effect1_dropShadow_532_4400"/>
<feOffset dy="1"/>
<feGaussianBlur stdDeviation="2.5"/>
<feComposite in2="hardAlpha" operator="out"/>
<feColorMatrix type="matrix" values="0 0 0 0 0.0745098 0 0 0 0 0.0745098 0 0 0 0 0.0862745 0 0 0 0.7 0"/>
<feBlend mode="normal" in2="BackgroundImageFix" result="effect1_dropShadow_532_4400"/>
<feColorMatrix in="SourceAlpha" type="matrix" values="0 0 0 0 0 0 0 0 0 0 0 0 0 0 0 0 0 0 127 0" result="hardAlpha"/>
<feMorphology radius="1" operator="dilate" in="SourceAlpha" result="effect2_dropShadow_532_4400"/>
<feOffset/>
<feComposite in2="hardAlpha" operator="out"/>
<feColorMatrix type="matrix" values="0 0 0 0 0.133333 0 0 0 0 0.164706 0 0 0 0 0.207843 0 0 0 0.08 0"/>
<feBlend mode="normal" in2="effect1_dropShadow_532_4400" result="effect2_dropShadow_532_4400"/>
<feColorMatrix in="SourceAlpha" type="matrix" values="0 0 0 0 0 0 0 0 0 0 0 0 0 0 0 0 0 0 127 0" result="hardAlpha"/>
<feOffset dy="4"/>
<feGaussianBlur stdDeviation="4"/>
<feComposite in2="hardAlpha" operator="out"/>
<feColorMatrix type="matrix" values="0 0 0 0 0.133333 0 0 0 0 0.164706 0 0 0 0 0.207843 0 0 0 0.05 0"/>
<feBlend mode="normal" in2="effect2_dropShadow_532_4400" result="effect3_dropShadow_532_4400"/>
<feBlend mode="normal" in="SourceGraphic" in2="effect3_dropShadow_532_4400" result="shape"/>
</filter>
<filter id="filter1_ddd_532_4400" x="14.0084" y="6" width="266.983" height="267" filterUnits="userSpaceOnUse" color-interpolation-filters="sRGB">
<feFlood flood-opacity="0" result="BackgroundImageFix"/>
<feColorMatrix in="SourceAlpha" type="matrix" values="0 0 0 0 0 0 0 0 0 0 0 0 0 0 0 0 0 0 127 0" result="hardAlpha"/>
<feMorphology radius="4" operator="erode" in="SourceAlpha" result="effect1_dropShadow_532_4400"/>
<feOffset dy="1"/>
<feGaussianBlur stdDeviation="2.5"/>
<feComposite in2="hardAlpha" operator="out"/>
<feColorMatrix type="matrix" values="0 0 0 0 0.0745098 0 0 0 0 0.0745098 0 0 0 0 0.0862745 0 0 0 0.7 0"/>
<feBlend mode="normal" in2="BackgroundImageFix" result="effect1_dropShadow_532_4400"/>
<feColorMatrix in="SourceAlpha" type="matrix" values="0 0 0 0 0 0 0 0 0 0 0 0 0 0 0 0 0 0 127 0" result="hardAlpha"/>
<feMorphology radius="1" operator="dilate" in="SourceAlpha" result="effect2_dropShadow_532_4400"/>
<feOffset/>
<feComposite in2="hardAlpha" operator="out"/>
<feColorMatrix type="matrix" values="0 0 0 0 0.133333 0 0 0 0 0.164706 0 0 0 0 0.207843 0 0 0 0.08 0"/>
<feBlend mode="normal" in2="effect1_dropShadow_532_4400" result="effect2_dropShadow_532_4400"/>
<feColorMatrix in="SourceAlpha" type="matrix" values="0 0 0 0 0 0 0 0 0 0 0 0 0 0 0 0 0 0 127 0" result="hardAlpha"/>
<feOffset dy="4"/>
<feGaussianBlur stdDeviation="4"/>
<feComposite in2="hardAlpha" operator="out"/>
<feColorMatrix type="matrix" values="0 0 0 0 0.133333 0 0 0 0 0.164706 0 0 0 0 0.207843 0 0 0 0.05 0"/>
<feBlend mode="normal" in2="effect2_dropShadow_532_4400" result="effect3_dropShadow_532_4400"/>
<feBlend mode="normal" in="SourceGraphic" in2="effect3_dropShadow_532_4400" result="shape"/>
</filter>
<filter id="filter2_ddd_532_4400" x="0" y="0" width="295" height="267" filterUnits="userSpaceOnUse" color-interpolation-filters="sRGB">
<feFlood flood-opacity="0" result="BackgroundImageFix"/>
<feColorMatrix in="SourceAlpha" type="matrix" values="0 0 0 0 0 0 0 0 0 0 0 0 0 0 0 0 0 0 127 0" result="hardAlpha"/>
<feMorphology radius="4" operator="erode" in="SourceAlpha" result="effect1_dropShadow_532_4400"/>
<feOffset dy="1"/>
<feGaussianBlur stdDeviation="2.5"/>
<feComposite in2="hardAlpha" operator="out"/>
<feColorMatrix type="matrix" values="0 0 0 0 0.0745098 0 0 0 0 0.0745098 0 0 0 0 0.0862745 0 0 0 0.14 0"/>
<feBlend mode="normal" in2="BackgroundImageFix" result="effect1_dropShadow_532_4400"/>
<feColorMatrix in="SourceAlpha" type="matrix" values="0 0 0 0 0 0 0 0 0 0 0 0 0 0 0 0 0 0 127 0" result="hardAlpha"/>
<feMorphology radius="1" operator="dilate" in="SourceAlpha" result="effect2_dropShadow_532_4400"/>
<feOffset/>
<feComposite in2="hardAlpha" operator="out"/>
<feColorMatrix type="matrix" values="0 0 0 0 0.133333 0 0 0 0 0.164706 0 0 0 0 0.207843 0 0 0 0.08 0"/>
<feBlend mode="normal" in2="effect1_dropShadow_532_4400" result="effect2_dropShadow_532_4400"/>
<feColorMatrix in="SourceAlpha" type="matrix" values="0 0 0 0 0 0 0 0 0 0 0 0 0 0 0 0 0 0 127 0" result="hardAlpha"/>
<feOffset dy="4"/>
<feGaussianBlur stdDeviation="4"/>
<feComposite in2="hardAlpha" operator="out"/>
<feColorMatrix type="matrix" values="0 0 0 0 0.133333 0 0 0 0 0.164706 0 0 0 0 0.207843 0 0 0 0.05 0"/>
<feBlend mode="normal" in2="effect2_dropShadow_532_4400" result="effect3_dropShadow_532_4400"/>
<feBlend mode="normal" in="SourceGraphic" in2="effect3_dropShadow_532_4400" result="shape"/>
</filter>
</defs>
</svg>
