<svg width="280" height="289" viewBox="0 0 280 289" fill="none" xmlns="http://www.w3.org/2000/svg">
<circle cx="140.012" cy="146.398" r="116.83" stroke="url(#paint0_linear_585_1027)"/>
<circle cx="140" cy="146" r="139.5" stroke="url(#paint1_linear_585_1027)"/>
<g filter="url(#filter0_d_585_1027)">
<circle cx="231.092" cy="223.159" r="22.2727" fill="white"/>
</g>
<g clip-path="url(#clip0_585_1027)">
<rect width="16.7045" height="19.0909" transform="translate(223.137 213.614)" fill="white"/>
<path d="M225.524 216.597C225.196 216.597 224.927 216.865 224.927 217.193V229.125C224.927 229.453 225.196 229.722 225.524 229.722H237.456C237.784 229.722 238.052 229.453 238.052 229.125V217.193C238.052 216.865 237.784 216.597 237.456 216.597H225.524ZM223.137 217.193C223.137 215.877 224.208 214.807 225.524 214.807H237.456C238.772 214.807 239.842 215.877 239.842 217.193V229.125C239.842 230.441 238.772 231.511 237.456 231.511H225.524C224.208 231.511 223.137 230.441 223.137 229.125V217.193ZM234.253 217.924C234.469 218.099 234.536 218.405 234.413 218.655L232.455 222.563H235.069C235.323 222.563 235.55 222.723 235.632 222.962C235.714 223.2 235.64 223.465 235.442 223.625L229.476 228.398C229.256 228.573 228.947 228.573 228.727 228.394C228.507 228.215 228.443 227.913 228.566 227.663L230.524 223.756H227.91C227.657 223.756 227.433 223.595 227.347 223.357C227.261 223.118 227.34 222.853 227.537 222.693L233.503 217.92C233.723 217.745 234.033 217.745 234.253 217.924Z" fill="#4739DC"/>
</g>
<g filter="url(#filter1_d_585_1027)">
<circle cx="61.6602" cy="223.159" r="22.2727" fill="white"/>
</g>
<g clip-path="url(#clip1_585_1027)">
<rect width="23.8636" height="19.0909" transform="translate(49.7284 213.614)" fill="white"/>
<path d="M53.0168 225.139C53.3822 224.457 53.2704 223.618 52.7372 223.058C51.943 222.223 51.5179 221.22 51.5179 220.176C51.5179 217.808 53.8968 215.403 57.4838 215.403C61.0708 215.403 63.4497 217.808 63.4497 220.176C63.4497 222.544 61.0708 224.949 57.4838 224.949C56.9953 224.949 56.5218 224.9 56.0744 224.815C55.6866 224.74 55.2839 224.792 54.9296 224.971C54.7768 225.05 54.6202 225.124 54.4598 225.195C53.8632 225.463 53.2331 225.698 52.5992 225.866C52.7036 225.695 52.8006 225.527 52.8938 225.359C52.9348 225.288 52.9758 225.214 53.0131 225.139H53.0168ZM49.7281 220.176C49.7281 221.735 50.3695 223.163 51.4396 224.289C51.406 224.352 51.3687 224.419 51.3352 224.479C50.9511 225.165 50.5037 225.84 49.9705 226.422C49.7244 226.683 49.661 227.063 49.799 227.387C49.9444 227.719 50.265 227.932 50.623 227.932C52.2263 227.932 53.8483 227.436 55.1981 226.824C55.3771 226.742 55.5561 226.657 55.7276 226.571C56.2906 226.683 56.8797 226.739 57.4838 226.739C61.7681 226.739 65.2395 223.8 65.2395 220.176C65.2395 216.552 61.7681 213.614 57.4838 213.614C53.1995 213.614 49.7281 216.552 49.7281 220.176ZM65.8361 231.511C66.4401 231.511 67.0255 231.452 67.5923 231.344C67.7638 231.429 67.9428 231.515 68.1218 231.597C69.4715 232.209 71.0935 232.705 72.6969 232.705C73.0548 232.705 73.3755 232.492 73.5172 232.164C73.6589 231.836 73.5918 231.455 73.3457 231.198C72.8162 230.616 72.3687 229.942 71.981 229.256C71.9474 229.192 71.9101 229.129 71.8766 229.065C72.9504 227.936 73.5918 226.507 73.5918 224.949C73.5918 221.429 70.3142 218.554 66.2015 218.394C66.3544 218.961 66.4327 219.557 66.4327 220.176V220.199C69.6841 220.448 71.802 222.715 71.802 224.949C71.802 225.993 71.3769 226.996 70.5827 227.827C70.0495 228.387 69.9376 229.229 70.303 229.908C70.3441 229.983 70.3851 230.057 70.4224 230.128C70.5156 230.296 70.6163 230.464 70.7169 230.635C70.0831 230.467 69.4529 230.236 68.8563 229.964C68.696 229.893 68.5394 229.819 68.3865 229.74C68.0323 229.561 67.6296 229.509 67.2418 229.584C66.7906 229.673 66.3208 229.718 65.8323 229.718C63.5317 229.718 61.7308 228.73 60.7315 227.395C60.1349 227.596 59.5085 227.745 58.8671 227.835C60.1312 230.012 62.7785 231.511 65.8361 231.511Z" fill="#00897C"/>
</g>
<g filter="url(#filter2_d_585_1027)">
<circle cx="47.3419" cy="76.7954" r="22.2727" fill="white"/>
</g>
<g clip-path="url(#clip2_585_1027)">
<path d="M42.4698 69.8352C42.4698 69.4524 42.783 69.1392 43.1658 69.1392H54.3022C54.685 69.1392 54.9982 69.4524 54.9982 69.8352V78.1875H52.9101C52.1401 78.1875 51.5181 78.8096 51.5181 79.5796V81.6676H43.1658C42.783 81.6676 42.4698 81.3544 42.4698 80.9716V69.8352ZM40.3817 69.8352V80.9716C40.3817 82.5072 41.6302 83.7557 43.1658 83.7557H51.7573C52.4968 83.7557 53.2059 83.4642 53.7279 82.9422L56.2728 80.3974C56.7948 79.8754 57.0862 79.1663 57.0862 78.4268V69.8352C57.0862 68.2996 55.8378 67.0511 54.3022 67.0511H43.1658C41.6302 67.0511 40.3817 68.2996 40.3817 69.8352ZM50.126 86.8878C50.126 86.3092 49.6606 85.8438 49.082 85.8438H42.1218C40.0076 85.8438 38.2936 84.1298 38.2936 82.0156V72.2713C38.2936 71.6927 37.8282 71.2273 37.2496 71.2273C36.671 71.2273 36.2056 71.6927 36.2056 72.2713V82.0156C36.2056 85.2826 38.8548 87.9318 42.1218 87.9318H49.082C49.6606 87.9318 50.126 87.4664 50.126 86.8878Z" fill="#1C56E3"/>
</g>
<g filter="url(#filter3_d_585_1027)">
<circle cx="142.386" cy="32.25" r="22.2727" fill="white"/>
</g>
<g clip-path="url(#clip3_585_1027)">
<path d="M136.02 22.2752C136.087 21.7009 135.665 21.1876 135.079 21.1224C134.493 21.0571 133.969 21.4704 133.903 22.0446L133.192 28.3088L133.184 28.3654V28.4219V29.1179C133.184 31.2321 134.933 32.9461 137.09 32.9461H137.445V42.3424C137.445 42.9209 137.92 43.3864 138.51 43.3864C139.101 43.3864 139.576 42.9209 139.576 42.3424V32.9461H139.931C142.088 32.9461 143.837 31.2321 143.837 29.1179V28.4219V28.3654L143.833 28.3088L143.122 22.0446C143.056 21.4704 142.528 21.0571 141.942 21.118C141.356 21.1789 140.934 21.6966 141.001 22.2708L141.706 28.4785V29.1179C141.706 30.0793 140.912 30.858 139.931 30.858H138.51H137.09C136.109 30.858 135.314 30.0793 135.314 29.1179V28.4785L136.02 22.2752ZM139.576 22.1577C139.576 21.5791 139.101 21.1137 138.51 21.1137C137.92 21.1137 137.445 21.5791 137.445 22.1577V28.4219C137.445 29.0005 137.92 29.4659 138.51 29.4659C139.101 29.4659 139.576 29.0005 139.576 28.4219V22.1577ZM147.743 28.7699C147.743 26.2599 148.707 24.9157 149.581 24.1718C149.923 23.8847 150.269 23.6672 150.584 23.5106V31.902V34.3381H148.453C148.063 34.3381 147.743 34.0249 147.743 33.6421V28.7699ZM150.584 36.4262V42.3424C150.584 42.9209 151.059 43.3864 151.65 43.3864C152.24 43.3864 152.715 42.9209 152.715 42.3424V36.4262V34.3381V31.902V22.5057C152.715 21.7357 152.08 21.1137 151.294 21.1137C150.584 21.1137 145.613 22.5057 145.613 28.7699V33.6421C145.613 35.1777 146.887 36.4262 148.453 36.4262H150.584Z" fill="#742DE5"/>
</g>
<g filter="url(#filter4_d_585_1027)">
<circle cx="142.386" cy="254.977" r="22.2727" fill="white"/>
</g>
<g clip-path="url(#clip4_585_1027)">
<rect width="20.6818" height="16.7045" transform="translate(132.045 247.023)" fill="white"/>
<path d="M137.038 249.881C137.335 249.757 137.665 249.747 137.969 249.855L143.97 252.008C144.173 252.08 144.396 252.063 144.59 251.962L147.276 250.543C147.757 250.289 148.29 250.155 148.836 250.155H150.478C150.84 250.155 151.079 250.533 150.927 250.866C150.371 252.067 149.441 253.052 148.281 253.665L140.182 257.956C140.147 257.975 140.105 257.985 140.063 257.985H136.14C136.065 257.985 135.991 257.952 135.943 257.894L133.797 255.365L134.54 254.99C134.608 254.954 134.689 254.954 134.76 254.983L136.641 255.829C136.857 255.926 137.106 255.917 137.316 255.806L140.163 254.298C140.409 254.168 140.567 253.917 140.577 253.636C140.586 253.355 140.451 253.091 140.215 252.941L136.053 250.298L137.038 249.884V249.881ZM138.486 248.38C137.82 248.142 137.093 248.161 136.44 248.435L134.996 249.046C134.03 249.453 133.916 250.791 134.805 251.355L138.25 253.545L136.928 254.243L135.39 253.551C134.896 253.329 134.33 253.342 133.845 253.587L134.181 254.266L133.849 253.59L132.808 254.116C132.055 254.494 131.858 255.486 132.404 256.132L134.766 258.915L135.335 258.422L134.766 258.912C135.109 259.316 135.613 259.551 136.14 259.551H140.063C140.357 259.551 140.645 259.479 140.903 259.342L148.995 255.052C150.459 254.276 151.629 253.039 152.327 251.528C152.96 250.158 151.971 248.589 150.472 248.589H148.833C148.038 248.589 147.256 248.785 146.555 249.156L144.167 250.416L138.486 248.38ZM132.821 262.161C132.391 262.161 132.045 262.51 132.045 262.944C132.045 263.378 132.391 263.727 132.821 263.727H151.952C152.381 263.727 152.727 263.378 152.727 262.944C152.727 262.51 152.381 262.161 151.952 262.161H132.821Z" fill="#008C5F"/>
</g>
<g filter="url(#filter5_d_585_1027)">
<circle cx="229.501" cy="76.7954" r="22.2727" fill="white"/>
</g>
<rect width="27.8409" height="22.2727" transform="translate(215.183 65.6591)" fill="white"/>
<path d="M220.781 69.6782C220.334 69.6782 219.975 70.0373 219.975 70.4836V76.3898C219.975 76.8362 220.334 77.1952 220.781 77.1952H222.392C222.838 77.1952 223.197 77.5543 223.197 78.0006V78.6449L225.167 77.3295C225.298 77.2422 225.455 77.1952 225.613 77.1952H229.909C230.355 77.1952 230.714 76.8362 230.714 76.3898V70.4836C230.714 70.0373 230.355 69.6782 229.909 69.6782H220.781ZM218.365 70.4836C218.365 69.148 219.445 68.0674 220.781 68.0674H229.909C231.244 68.0674 232.325 69.148 232.325 70.4836V76.3898C232.325 77.7254 231.244 78.806 229.909 78.806H225.858L222.838 80.8195C222.59 80.984 222.274 81.0007 222.012 80.8598C221.751 80.7188 221.586 80.447 221.586 80.1484V78.806H220.781C219.445 78.806 218.365 77.7254 218.365 76.3898V70.4836ZM226.956 79.8799H228.566V80.6853C228.566 81.1316 228.925 81.4907 229.372 81.4907H232.593C232.751 81.4907 232.909 81.5377 233.04 81.6249L235.01 82.9404V82.2961C235.01 81.8498 235.369 81.4907 235.815 81.4907H237.426C237.872 81.4907 238.231 81.1316 238.231 80.6853V74.779C238.231 74.3327 237.872 73.9736 237.426 73.9736H233.399V72.3628H237.426C238.761 72.3628 239.842 73.4434 239.842 74.779V80.6853C239.842 82.0209 238.761 83.1015 237.426 83.1015H236.62V84.4438C236.62 84.7425 236.456 85.0143 236.194 85.1552C235.932 85.2962 235.614 85.2794 235.369 85.115L232.348 83.1015H229.372C228.036 83.1015 226.956 82.0209 226.956 80.6853V79.8799ZM223.328 71.2923C223.512 70.7755 224.002 70.4299 224.549 70.4299H225.935C226.747 70.4299 227.402 71.0876 227.402 71.8964C227.402 72.4232 227.12 72.9065 226.664 73.1682L225.882 73.6179V73.628C225.882 73.9233 225.64 74.1649 225.345 74.1649C225.049 74.1649 224.808 73.9233 224.808 73.628V73.3092C224.808 73.1179 224.912 72.94 225.076 72.8427L226.13 72.2387C226.251 72.1682 226.328 72.0373 226.328 71.8964C226.328 71.6783 226.15 71.5037 225.935 71.5037H224.549C224.455 71.5037 224.372 71.5642 224.338 71.6514L224.328 71.6816C224.227 71.9601 223.922 72.1078 223.643 72.0071C223.365 71.9064 223.217 71.6011 223.318 71.3225L223.328 71.2923ZM224.583 75.7187C224.576 75.6146 224.591 75.5102 224.626 75.412C224.661 75.3138 224.716 75.2238 224.787 75.1476C224.858 75.0715 224.944 75.0108 225.04 74.9693C225.136 74.9278 225.239 74.9064 225.343 74.9064C225.447 74.9064 225.551 74.9278 225.646 74.9693C225.742 75.0108 225.828 75.0715 225.899 75.1476C225.971 75.2238 226.025 75.3138 226.06 75.412C226.096 75.5102 226.11 75.6146 226.103 75.7187C226.11 75.8227 226.096 75.9271 226.06 76.0253C226.025 76.1235 225.971 76.2135 225.899 76.2897C225.828 76.3658 225.742 76.4265 225.646 76.468C225.551 76.5096 225.447 76.531 225.343 76.531C225.239 76.531 225.136 76.5096 225.04 76.468C224.944 76.4265 224.858 76.3658 224.787 76.2897C224.716 76.2135 224.661 76.1235 224.626 76.0253C224.591 75.9271 224.576 75.8227 224.583 75.7187Z" fill="#E02E36"/>
<rect x="74" y="125" width="132" height="48" rx="12" fill="#DE7212"/>
<g clip-path="url(#clip5_585_1027)">
<path d="M96.5194 143.168L95.4722 143.553C95.3889 143.583 95.3333 143.663 95.3333 143.75C95.3333 143.838 95.3889 143.917 95.4722 143.947L96.5194 144.332L96.9111 145.363C96.9417 145.445 97.0222 145.5 97.1111 145.5C97.2 145.5 97.2806 145.445 97.3111 145.363L97.7028 144.332L98.75 143.947C98.8333 143.917 98.8889 143.838 98.8889 143.75C98.8889 143.663 98.8333 143.583 98.75 143.553L97.7028 143.168L97.3111 142.137C97.2806 142.055 97.2 142 97.1111 142C97.0222 142 96.9417 142.055 96.9111 142.137L96.5194 143.168ZM102.817 143.313L103.778 144.259L100.728 147.258L99.7667 146.312L102.817 143.313ZM92.2222 153.741L98.825 147.242L99.7861 148.188L93.1833 154.688L92.2222 153.741ZM101.872 142.386L91.2806 152.812C90.7611 153.323 90.7611 154.154 91.2806 154.668L92.2417 155.614C92.7611 156.126 93.6056 156.126 94.1278 155.614L104.719 145.186C105.239 144.674 105.239 143.843 104.719 143.329L103.758 142.386C103.239 141.874 102.394 141.874 101.872 142.386ZM90.2083 145.205C90.0833 145.251 90 145.369 90 145.5C90 145.631 90.0833 145.749 90.2083 145.795L91.7778 146.375L92.3667 147.92C92.4139 148.043 92.5333 148.125 92.6667 148.125C92.8 148.125 92.9194 148.043 92.9667 147.92L93.5556 146.375L95.125 145.795C95.25 145.749 95.3333 145.631 95.3333 145.5C95.3333 145.369 95.25 145.251 95.125 145.205L93.5556 144.625L92.9667 143.08C92.9194 142.957 92.8 142.875 92.6667 142.875C92.5333 142.875 92.4139 142.957 92.3667 143.08L91.7778 144.625L90.2083 145.205ZM99.9861 152.205C99.8611 152.251 99.7778 152.369 99.7778 152.5C99.7778 152.631 99.8611 152.749 99.9861 152.795L101.556 153.375L102.144 154.92C102.192 155.043 102.311 155.125 102.444 155.125C102.578 155.125 102.697 155.043 102.744 154.92L103.333 153.375L104.903 152.795C105.028 152.749 105.111 152.631 105.111 152.5C105.111 152.369 105.028 152.251 104.903 152.205L103.333 151.625L102.744 150.08C102.697 149.957 102.578 149.875 102.444 149.875C102.311 149.875 102.192 149.957 102.144 150.08L101.556 151.625L99.9861 152.205Z" fill="white"/>
</g>
<path d="M122.816 156.192C121.973 156.192 121.189 156.037 120.464 155.728C119.749 155.419 119.12 154.992 118.576 154.448C118.043 153.893 117.627 153.243 117.328 152.496C117.029 151.749 116.88 150.928 116.88 150.032C116.88 149.147 117.024 148.331 117.312 147.584C117.611 146.827 118.027 146.176 118.56 145.632C119.093 145.077 119.717 144.651 120.432 144.352C121.147 144.043 121.931 143.888 122.784 143.888C123.627 143.888 124.379 144.032 125.04 144.32C125.712 144.608 126.277 144.987 126.736 145.456C127.195 145.915 127.525 146.416 127.728 146.96L126.048 147.776C125.803 147.125 125.397 146.603 124.832 146.208C124.267 145.803 123.584 145.6 122.784 145.6C121.995 145.6 121.296 145.787 120.688 146.16C120.08 146.533 119.605 147.051 119.264 147.712C118.933 148.373 118.768 149.147 118.768 150.032C118.768 150.917 118.939 151.696 119.28 152.368C119.632 153.029 120.112 153.547 120.72 153.92C121.328 154.283 122.027 154.464 122.816 154.464C123.477 154.464 124.08 154.331 124.624 154.064C125.179 153.787 125.621 153.403 125.952 152.912C126.283 152.411 126.448 151.829 126.448 151.168V150.352L127.296 151.12H122.784V149.52H128.32V150.64C128.32 151.515 128.171 152.299 127.872 152.992C127.573 153.675 127.168 154.256 126.656 154.736C126.144 155.216 125.557 155.579 124.896 155.824C124.235 156.069 123.541 156.192 122.816 156.192ZM134.136 156.192C133.272 156.192 132.504 155.995 131.832 155.6C131.17 155.195 130.653 154.651 130.28 153.968C129.906 153.275 129.72 152.501 129.72 151.648C129.72 150.773 129.906 150 130.28 149.328C130.664 148.656 131.176 148.128 131.816 147.744C132.456 147.349 133.181 147.152 133.992 147.152C134.642 147.152 135.224 147.264 135.736 147.488C136.248 147.712 136.68 148.021 137.032 148.416C137.384 148.8 137.65 149.243 137.832 149.744C138.024 150.245 138.12 150.779 138.12 151.344C138.12 151.483 138.114 151.627 138.104 151.776C138.093 151.925 138.072 152.064 138.04 152.192H131.144V150.752H137.016L136.152 151.408C136.258 150.885 136.221 150.421 136.04 150.016C135.869 149.6 135.602 149.275 135.24 149.04C134.888 148.795 134.472 148.672 133.992 148.672C133.512 148.672 133.085 148.795 132.712 149.04C132.338 149.275 132.05 149.616 131.848 150.064C131.645 150.501 131.565 151.035 131.608 151.664C131.554 152.251 131.634 152.763 131.848 153.2C132.072 153.637 132.381 153.979 132.776 154.224C133.181 154.469 133.64 154.592 134.152 154.592C134.674 154.592 135.117 154.475 135.48 154.24C135.853 154.005 136.146 153.701 136.36 153.328L137.832 154.048C137.661 154.453 137.394 154.821 137.032 155.152C136.68 155.472 136.253 155.728 135.752 155.92C135.261 156.101 134.722 156.192 134.136 156.192ZM139.884 156V147.344H141.612V149.04L141.404 148.816C141.617 148.272 141.959 147.861 142.428 147.584C142.897 147.296 143.441 147.152 144.06 147.152C144.7 147.152 145.265 147.291 145.756 147.568C146.247 147.845 146.631 148.229 146.908 148.72C147.185 149.211 147.324 149.776 147.324 150.416V156H145.532V150.896C145.532 150.459 145.452 150.091 145.292 149.792C145.132 149.483 144.903 149.248 144.604 149.088C144.316 148.917 143.985 148.832 143.612 148.832C143.239 148.832 142.903 148.917 142.604 149.088C142.316 149.248 142.092 149.483 141.932 149.792C141.772 150.101 141.692 150.469 141.692 150.896V156H139.884ZM153.323 156.192C152.459 156.192 151.691 155.995 151.019 155.6C150.358 155.195 149.84 154.651 149.467 153.968C149.094 153.275 148.907 152.501 148.907 151.648C148.907 150.773 149.094 150 149.467 149.328C149.851 148.656 150.363 148.128 151.003 147.744C151.643 147.349 152.368 147.152 153.179 147.152C153.83 147.152 154.411 147.264 154.923 147.488C155.435 147.712 155.867 148.021 156.219 148.416C156.571 148.8 156.838 149.243 157.019 149.744C157.211 150.245 157.307 150.779 157.307 151.344C157.307 151.483 157.302 151.627 157.291 151.776C157.28 151.925 157.259 152.064 157.227 152.192H150.331V150.752H156.203L155.339 151.408C155.446 150.885 155.408 150.421 155.227 150.016C155.056 149.6 154.79 149.275 154.427 149.04C154.075 148.795 153.659 148.672 153.179 148.672C152.699 148.672 152.272 148.795 151.899 149.04C151.526 149.275 151.238 149.616 151.035 150.064C150.832 150.501 150.752 151.035 150.795 151.664C150.742 152.251 150.822 152.763 151.035 153.2C151.259 153.637 151.568 153.979 151.963 154.224C152.368 154.469 152.827 154.592 153.339 154.592C153.862 154.592 154.304 154.475 154.667 154.24C155.04 154.005 155.334 153.701 155.547 153.328L157.019 154.048C156.848 154.453 156.582 154.821 156.219 155.152C155.867 155.472 155.44 155.728 154.939 155.92C154.448 156.101 153.91 156.192 153.323 156.192ZM159.072 156V147.344H160.8V149.088L160.64 148.832C160.832 148.267 161.141 147.861 161.568 147.616C161.994 147.36 162.506 147.232 163.104 147.232H163.632V148.88H162.88C162.282 148.88 161.797 149.067 161.424 149.44C161.061 149.803 160.88 150.325 160.88 151.008V156H159.072ZM167.461 156.192C166.874 156.192 166.357 156.091 165.909 155.888C165.471 155.675 165.13 155.387 164.885 155.024C164.639 154.651 164.517 154.213 164.517 153.712C164.517 153.243 164.618 152.821 164.821 152.448C165.034 152.075 165.359 151.76 165.797 151.504C166.234 151.248 166.783 151.067 167.445 150.96L170.453 150.464V151.888L167.797 152.352C167.317 152.437 166.965 152.592 166.741 152.816C166.517 153.029 166.405 153.307 166.405 153.648C166.405 153.979 166.527 154.251 166.773 154.464C167.029 154.667 167.354 154.768 167.749 154.768C168.239 154.768 168.666 154.661 169.029 154.448C169.402 154.235 169.69 153.952 169.893 153.6C170.095 153.237 170.197 152.837 170.197 152.4V150.176C170.197 149.749 170.037 149.403 169.717 149.136C169.407 148.859 168.991 148.72 168.469 148.72C167.989 148.72 167.567 148.848 167.205 149.104C166.853 149.349 166.591 149.669 166.421 150.064L164.917 149.312C165.077 148.885 165.338 148.512 165.701 148.192C166.063 147.861 166.485 147.605 166.965 147.424C167.455 147.243 167.973 147.152 168.516 147.152C169.199 147.152 169.802 147.28 170.325 147.536C170.858 147.792 171.269 148.149 171.557 148.608C171.855 149.056 172.005 149.579 172.005 150.176V156H170.277V154.432L170.645 154.48C170.442 154.832 170.181 155.136 169.861 155.392C169.551 155.648 169.194 155.845 168.789 155.984C168.394 156.123 167.951 156.192 167.461 156.192ZM177.706 156.096C176.8 156.096 176.096 155.84 175.594 155.328C175.093 154.816 174.842 154.096 174.842 153.168V148.976H173.322V147.344H173.562C173.968 147.344 174.282 147.227 174.506 146.992C174.73 146.757 174.842 146.437 174.842 146.032V145.36H176.65V147.344H178.618V148.976H176.65V153.088C176.65 153.387 176.698 153.643 176.794 153.856C176.89 154.059 177.045 154.219 177.258 154.336C177.472 154.443 177.749 154.496 178.09 154.496C178.176 154.496 178.272 154.491 178.378 154.48C178.485 154.469 178.586 154.459 178.682 154.448V156C178.533 156.021 178.368 156.043 178.186 156.064C178.005 156.085 177.845 156.096 177.706 156.096ZM184.354 156.192C183.49 156.192 182.722 155.995 182.05 155.6C181.389 155.195 180.872 154.651 180.498 153.968C180.125 153.275 179.938 152.501 179.938 151.648C179.938 150.773 180.125 150 180.498 149.328C180.882 148.656 181.394 148.128 182.034 147.744C182.674 147.349 183.4 147.152 184.21 147.152C184.861 147.152 185.442 147.264 185.954 147.488C186.466 147.712 186.898 148.021 187.25 148.416C187.602 148.8 187.869 149.243 188.05 149.744C188.242 150.245 188.338 150.779 188.338 151.344C188.338 151.483 188.333 151.627 188.322 151.776C188.312 151.925 188.29 152.064 188.258 152.192H181.362V150.752H187.234L186.37 151.408C186.477 150.885 186.44 150.421 186.258 150.016C186.088 149.6 185.821 149.275 185.458 149.04C185.106 148.795 184.69 148.672 184.21 148.672C183.73 148.672 183.304 148.795 182.93 149.04C182.557 149.275 182.269 149.616 182.066 150.064C181.864 150.501 181.784 151.035 181.826 151.664C181.773 152.251 181.853 152.763 182.066 153.2C182.29 153.637 182.6 153.979 182.994 154.224C183.4 154.469 183.858 154.592 184.37 154.592C184.893 154.592 185.336 154.475 185.698 154.24C186.072 154.005 186.365 153.701 186.578 153.328L188.05 154.048C187.88 154.453 187.613 154.821 187.25 155.152C186.898 155.472 186.472 155.728 185.97 155.92C185.48 156.101 184.941 156.192 184.354 156.192Z" fill="white"/>
<defs>
<filter id="filter0_d_585_1027" x="198.819" y="191.886" width="64.5454" height="64.5454" filterUnits="userSpaceOnUse" color-interpolation-filters="sRGB">
<feFlood flood-opacity="0" result="BackgroundImageFix"/>
<feColorMatrix in="SourceAlpha" type="matrix" values="0 0 0 0 0 0 0 0 0 0 0 0 0 0 0 0 0 0 127 0" result="hardAlpha"/>
<feOffset dy="1"/>
<feGaussianBlur stdDeviation="5"/>
<feComposite in2="hardAlpha" operator="out"/>
<feColorMatrix type="matrix" values="0 0 0 0 0 0 0 0 0 0 0 0 0 0 0 0 0 0 0.15 0"/>
<feBlend mode="normal" in2="BackgroundImageFix" result="effect1_dropShadow_585_1027"/>
<feBlend mode="normal" in="SourceGraphic" in2="effect1_dropShadow_585_1027" result="shape"/>
</filter>
<filter id="filter1_d_585_1027" x="29.3875" y="191.886" width="64.5454" height="64.5454" filterUnits="userSpaceOnUse" color-interpolation-filters="sRGB">
<feFlood flood-opacity="0" result="BackgroundImageFix"/>
<feColorMatrix in="SourceAlpha" type="matrix" values="0 0 0 0 0 0 0 0 0 0 0 0 0 0 0 0 0 0 127 0" result="hardAlpha"/>
<feOffset dy="1"/>
<feGaussianBlur stdDeviation="5"/>
<feComposite in2="hardAlpha" operator="out"/>
<feColorMatrix type="matrix" values="0 0 0 0 0 0 0 0 0 0 0 0 0 0 0 0 0 0 0.15 0"/>
<feBlend mode="normal" in2="BackgroundImageFix" result="effect1_dropShadow_585_1027"/>
<feBlend mode="normal" in="SourceGraphic" in2="effect1_dropShadow_585_1027" result="shape"/>
</filter>
<filter id="filter2_d_585_1027" x="15.0692" y="45.5227" width="64.5454" height="64.5454" filterUnits="userSpaceOnUse" color-interpolation-filters="sRGB">
<feFlood flood-opacity="0" result="BackgroundImageFix"/>
<feColorMatrix in="SourceAlpha" type="matrix" values="0 0 0 0 0 0 0 0 0 0 0 0 0 0 0 0 0 0 127 0" result="hardAlpha"/>
<feOffset dy="1"/>
<feGaussianBlur stdDeviation="5"/>
<feComposite in2="hardAlpha" operator="out"/>
<feColorMatrix type="matrix" values="0 0 0 0 0 0 0 0 0 0 0 0 0 0 0 0 0 0 0.15 0"/>
<feBlend mode="normal" in2="BackgroundImageFix" result="effect1_dropShadow_585_1027"/>
<feBlend mode="normal" in="SourceGraphic" in2="effect1_dropShadow_585_1027" result="shape"/>
</filter>
<filter id="filter3_d_585_1027" x="110.114" y="0.977295" width="64.5454" height="64.5454" filterUnits="userSpaceOnUse" color-interpolation-filters="sRGB">
<feFlood flood-opacity="0" result="BackgroundImageFix"/>
<feColorMatrix in="SourceAlpha" type="matrix" values="0 0 0 0 0 0 0 0 0 0 0 0 0 0 0 0 0 0 127 0" result="hardAlpha"/>
<feOffset dy="1"/>
<feGaussianBlur stdDeviation="5"/>
<feComposite in2="hardAlpha" operator="out"/>
<feColorMatrix type="matrix" values="0 0 0 0 0 0 0 0 0 0 0 0 0 0 0 0 0 0 0.15 0"/>
<feBlend mode="normal" in2="BackgroundImageFix" result="effect1_dropShadow_585_1027"/>
<feBlend mode="normal" in="SourceGraphic" in2="effect1_dropShadow_585_1027" result="shape"/>
</filter>
<filter id="filter4_d_585_1027" x="110.114" y="223.705" width="64.5454" height="64.5454" filterUnits="userSpaceOnUse" color-interpolation-filters="sRGB">
<feFlood flood-opacity="0" result="BackgroundImageFix"/>
<feColorMatrix in="SourceAlpha" type="matrix" values="0 0 0 0 0 0 0 0 0 0 0 0 0 0 0 0 0 0 127 0" result="hardAlpha"/>
<feOffset dy="1"/>
<feGaussianBlur stdDeviation="5"/>
<feComposite in2="hardAlpha" operator="out"/>
<feColorMatrix type="matrix" values="0 0 0 0 0 0 0 0 0 0 0 0 0 0 0 0 0 0 0.15 0"/>
<feBlend mode="normal" in2="BackgroundImageFix" result="effect1_dropShadow_585_1027"/>
<feBlend mode="normal" in="SourceGraphic" in2="effect1_dropShadow_585_1027" result="shape"/>
</filter>
<filter id="filter5_d_585_1027" x="197.228" y="45.5227" width="64.5454" height="64.5454" filterUnits="userSpaceOnUse" color-interpolation-filters="sRGB">
<feFlood flood-opacity="0" result="BackgroundImageFix"/>
<feColorMatrix in="SourceAlpha" type="matrix" values="0 0 0 0 0 0 0 0 0 0 0 0 0 0 0 0 0 0 127 0" result="hardAlpha"/>
<feOffset dy="1"/>
<feGaussianBlur stdDeviation="5"/>
<feComposite in2="hardAlpha" operator="out"/>
<feColorMatrix type="matrix" values="0 0 0 0 0 0 0 0 0 0 0 0 0 0 0 0 0 0 0.15 0"/>
<feBlend mode="normal" in2="BackgroundImageFix" result="effect1_dropShadow_585_1027"/>
<feBlend mode="normal" in="SourceGraphic" in2="effect1_dropShadow_585_1027" result="shape"/>
</filter>
<linearGradient id="paint0_linear_585_1027" x1="213.592" y1="29.0682" x2="56.8874" y2="247.421" gradientUnits="userSpaceOnUse">
<stop stop-color="#DE7212" stop-opacity="0.4"/>
<stop offset="1" stop-color="#1C56E3" stop-opacity="0.6"/>
</linearGradient>
<linearGradient id="paint1_linear_585_1027" x1="148.75" y1="-73.9432" x2="140" y2="286" gradientUnits="userSpaceOnUse">
<stop stop-color="#CCCCCC" stop-opacity="0.57"/>
<stop offset="1" stop-color="#F9F5F0" stop-opacity="0.5"/>
</linearGradient>
<clipPath id="clip0_585_1027">
<rect width="16.7045" height="19.0909" fill="white" transform="translate(223.137 213.614)"/>
</clipPath>
<clipPath id="clip1_585_1027">
<rect width="23.8636" height="19.0909" fill="white" transform="translate(49.7284 213.614)"/>
</clipPath>
<clipPath id="clip2_585_1027">
<rect width="22.2727" height="22.2727" fill="white" transform="translate(36.2056 65.6591)"/>
</clipPath>
<clipPath id="clip3_585_1027">
<rect width="19.8864" height="22.2727" fill="white" transform="translate(132.828 21.1136)"/>
</clipPath>
<clipPath id="clip4_585_1027">
<rect width="20.6818" height="16.7045" fill="white" transform="translate(132.045 247.023)"/>
</clipPath>
<clipPath id="clip5_585_1027">
<rect width="16" height="14" fill="white" transform="translate(90 142)"/>
</clipPath>
</defs>
</svg>
